[Header]
FileType HTR
DataType HTRS
FileVersion 1
NumSegments 64
NumFrames 2
DataFrameRate 30
EulerRotationOrder ZYX
CalibrationUnits mm
RotationUnits Degrees
GlobalAxisofGravity Y
BoneLengthAxis Y
ScaleFactor 1.0
[SegmentNames&Hierarchy]
Hips	GLOBAL
Spine	Hips
Spine1	Spine
Spine2	Spine1
Neck	Spine2
Head	Neck
LeftEye	Head
RightEye	Head
LeftShoulder	Spine2
LeftArm	LeftShoulder
LeftForeArm	LeftArm
LeftHand	LeftForeArm
LeftHandThumb1	LeftHand
LeftHandThumb2	LeftHandThumb1
LeftHandThumb3	LeftHandThumb2
LeftHandThumb4	LeftHandThumb3
LeftHandIndex1	LeftHand
LeftHandIndex2	LeftHandIndex1
LeftHandIndex3	LeftHandIndex2
LeftHandIndex4	LeftHandIndex3
LeftHandMiddle1	LeftHand
LeftHandMiddle2	LeftHandMiddle1
LeftHandMiddle3	LeftHandMiddle2
LeftHandMiddle4	LeftHandMiddle3
LeftHandRing1	LeftHand
LeftHandRing2	LeftHandRing1
LeftHandRing3	LeftHandRing2
LeftHandRing4	LeftHandRing3
LeftHandPinky1	LeftHand
LeftHandPinky2	LeftHandPinky1
LeftHandPinky3	LeftHandPinky2
LeftHandPinky4	LeftHandPinky3
RightShoulder	Spine2
RightArm	RightShoulder
RightForeArm	RightArm
RightHand	RightForeArm
RightHandPinky1	RightHand
RightHandPinky2	RightHandPinky1
RightHandPinky3	RightHandPinky2
RightHandPinky4	RightHandPinky3
RightHandRing1	RightHand
RightHandRing2	RightHandRing1
RightHandRing3	RightHandRing2
RightHandRing4	RightHandRing3
RightHandMiddle1	RightHand
RightHandMiddle2	RightHandMiddle1
RightHandMiddle3	RightHandMiddle2
RightHandMiddle4	RightHandMiddle3
RightHandIndex1	RightHand
RightHandIndex2	RightHandIndex1
RightHandIndex3	RightHandIndex2
RightHandIndex4	RightHandIndex3
RightHandThumb1	RightHand
RightHandThumb2	RightHandThumb1
RightHandThumb3	RightHandThumb2
RightHandThumb4	RightHandThumb3
LeftUpLeg	Hips
LeftLeg	LeftUpLeg
LeftFoot	LeftLeg
LeftToeBase	LeftFoot
RightUpLeg	Hips
RightLeg	RightUpLeg
RightFoot	RightLeg
RightToeBase	RightFoot
[BasePosition]
Hips	0	0	0	0	0	0	1
Spine	0	0	0	0	0	0	1
Spine1	0	0	0	0	0	0	1
Spine2	0	0	0	0	0	0	1
Neck	0	0	0	0	0	0	1
Head	0	0	0	0	0	0	1
LeftEye	0	0	0	0	0	0	1
RightEye	0	0	0	0	0	0	1
LeftShoulder	0	0	0	0	0	0	1
LeftArm	0	0	0	0	0	0	1
LeftForeArm	0	0	0	0	0	0	1
LeftHand	0	0	0	0	0	0	1
LeftHandThumb1	0	0	0	0	0	0	1
LeftHandThumb2	0	0	0	0	0	0	1
LeftHandThumb3	0	0	0	0	0	0	1
LeftHandThumb4	0	0	0	0	0	0	1
LeftHandIndex1	0	0	0	0	0	0	1
LeftHandIndex2	0	0	0	0	0	0	1
LeftHandIndex3	0	0	0	0	0	0	1
LeftHandIndex4	0	0	0	0	0	0	1
LeftHandMiddle1	0	0	0	0	0	0	1
LeftHandMiddle2	0	0	0	0	0	0	1
LeftHandMiddle3	0	0	0	0	0	0	1
LeftHandMiddle4	0	0	0	0	0	0	1
LeftHandRing1	0	0	0	0	0	0	1
LeftHandRing2	0	0	0	0	0	0	1
LeftHandRing3	0	0	0	0	0	0	1
LeftHandRing4	0	0	0	0	0	0	1
LeftHandPinky1	0	0	0	0	0	0	1
LeftHandPinky2	0	0	0	0	0	0	1
LeftHandPinky3	0	0	0	0	0	0	1
LeftHandPinky4	0	0	0	0	0	0	1
RightShoulder	0	0	0	0	0	0	1
RightArm	0	0	0	0	0	0	1
RightForeArm	0	0	0	0	0	0	1
RightHand	0	0	0	0	0	0	1
RightHandPinky1	0	0	0	0	0	0	1
RightHandPinky2	0	0	0	0	0	0	1
RightHandPinky3	0	0	0	0	0	0	1
RightHandPinky4	0	0	0	0	0	0	1
RightHandRing1	0	0	0	0	0	0	1
RightHandRing2	0	0	0	0	0	0	1
RightHandRing3	0	0	0	0	0	0	1
RightHandRing4	0	0	0	0	0	0	1
RightHandMiddle1	0	0	0	0	0	0	1
RightHandMiddle2	0	0	0	0	0	0	1
RightHandMiddle3	0	0	0	0	0	0	1
RightHandMiddle4	0	0	0	0	0	0	1
RightHandIndex1	0	0	0	0	0	0	1
RightHandIndex2	0	0	0	0	0	0	1
RightHandIndex3	0	0	0	0	0	0	1
RightHandIndex4	0	0	0	0	0	0	1
RightHandThumb1	0	0	0	0	0	0	1
RightHandThumb2	0	0	0	0	0	0	1
RightHandThumb3	0	0	0	0	0	0	1
RightHandThumb4	0	0	0	0	0	0	1
LeftUpLeg	0	0	0	0	0	0	1
LeftLeg	0	0	0	0	0	0	1
LeftFoot	0	0	0	0	0	0	1
LeftToeBase	0	0	0	0	0	0	1
RightUpLeg	0	0	0	0	0	0	1
RightLeg	0	0	0	0	0	0	1
RightFoot	0	0	0	0	0	0	1
RightToeBase	0	0	0	0	0	0	1
[Hips]
1	17.13451004	1002.483154	6.629199505	2.146145344	66.06347656	-5.810482502	1.0
2	66.32286835	1010.015137	11.74211884	5.211514473	66.05982971	-2.638248444	1.0
[Spine]
1	0	101.8159943	1.315000057	5.889626503	-7.701002121	1.617123365	1.0
2	0	101.8159943	1.315000057	5.905422688	-7.197871685	-0.01184526086	1.0
[Spine1]
1	0	100.8349991	-10.00800037	4.194532871	-5.176445961	1.110182166	1.0
2	0	100.8349991	-10.00800037	4.222284794	-4.848687649	0.6130652428	1.0
[Spine2]
1	0	91	-13.73399925	4.171136379	-5.202404976	1.093420625	1.0
2	0	91	-13.73399925	4.194149494	-4.879963398	0.5933161974	1.0
[Neck]
1	0	166.7169952	-25.16200066	5.039340019	-5.960304737	-0.8452606201	1.0
2	0	166.7169952	-25.16200066	4.874641895	-5.990335464	-0.8879791498	1.0
[Head]
1	0	96.17900085	16.84999847	-11.59611607	-34.12618637	11.47437572	1.0
2	0	96.17900085	16.84999847	-11.54464245	-34.28388977	11.79704762	1.0
[LeftEye]
1	30.6760006	64.09500122	92.83599854	0	0	0	1.0
2	30.6760006	64.09500122	92.83599854	0	0	0	1.0
[RightEye]
1	-30.6760006	64.09500122	92.83499908	0	0	0	1.0
2	-30.6760006	64.09500122	92.83499908	0	0	0	1.0
[LeftShoulder]
1	45.70400238	109.4599991	-26.28000069	1.950618267	-7.917369366	-9.748616219	1.0
2	45.70400238	109.4599991	-26.28000069	2.00349164	-7.380495548	-9.875645638	1.0
[LeftArm]
1	105.923996	-5.24600029	-22.32099915	33.49546051	-24.34958839	-59.73916626	1.0
2	105.923996	-5.24600029	-22.32099915	31.65967369	-20.58551407	-57.26992035	1.0
[LeftForeArm]
1	278.414978	-0.0009999999311	0	-6.790654652e-07	-15.58891201	-0.0002038199164	1.0
2	278.414978	-0.0009999999311	0	-6.655021934e-06	-16.60690117	-0.0001794084528	1.0
[LeftHand]
1	283.2879944	0	0	0.004697935656	-0.7593409419	4.413471699	1.0
2	283.2879944	0	0	-1.611268163	-2.543429136	4.311323166	1.0
[LeftHandThumb1]
1	24.6609993	-15.75	26.8239994	0.9464570284	1.151123047	0.2541034818	1.0
2	24.6609993	-15.75	26.8239994	0.9464570284	1.151123047	0.2541034818	1.0
[LeftHandThumb2]
1	32.29800034	-18.64699936	18.64699936	15.58803272	2.489709854	18.10643196	1.0
2	32.29800034	-18.64699936	18.64699936	13.66705418	2.322642803	18.51973343	1.0
[LeftHandThumb3]
1	26.52600098	-15.31499958	15.31499958	-2.857403278	-12.53291798	22.2556324	1.0
2	26.52600098	-15.31499958	15.31499958	-2.558680058	-11.80623055	22.08182526	1.0
[LeftHandThumb4]
1	19.54599953	-11.28499985	11.28499985	0	0	0	1.0
2	19.54599953	-11.28499985	11.28499985	0	0	0	1.0
[LeftHandIndex1]
1	91.09299469	-5.170999527	22.60099792	-1.525067091	-0.9784328938	-25.74981499	1.0
2	91.09299469	-5.170999527	22.60099792	-1.462281227	-1.472482204	-25.02275848	1.0
[LeftHandIndex2]
1	36.76399994	0	0	-0.1281841993	1.217316628	-12.02183151	1.0
2	36.76399994	0	0	-0.1277496815	1.215289593	-12.00151634	1.0
[LeftHandIndex3]
1	28.83100128	0	0	-0.1333713531	1.241414547	-12.26360893	1.0
2	28.83100128	0	0	-0.1329311281	1.239382148	-12.24318886	1.0
[LeftHandIndex4]
1	23.92700005	0	0	0	0	0	1.0
2	23.92700005	0	0	0	0	0	1.0
[LeftHandMiddle1]
1	95.33399963	0	0	-2.06259346	3.50453639	-31.81070328	1.0
2	95.33399963	0	0	-2.023158789	3.127381802	-31.3751545	1.0
[LeftHandMiddle2]
1	36.98199844	0	0	-0.3018290401	1.85363996	-18.49510193	1.0
2	36.98199844	0	0	-0.300840646	1.850685358	-18.46452141	1.0
[LeftHandMiddle3]
1	29.50900078	0	0	-0.1084182262	1.120507836	-11.05296516	1.0
2	29.50900078	0	0	-0.1078199297	1.117438197	-11.02229595	1.0
[LeftHandMiddle4]
1	28.3390007	0	0	0	0	0	1.0
2	28.3390007	0	0	0	0	0	1.0
[LeftHandRing1]
1	91.04499817	-0.4390000105	-18.65100098	-2.193198681	7.23500967	-33.2721138	1.0
2	91.04499817	-0.4390000105	-18.65100098	-2.144649744	7.165929317	-32.73444748	1.0
[LeftHandRing2]
1	31.54000092	0	0	-0.4718870521	2.300091743	-23.18498802	1.0
2	31.54000092	0	0	-0.475923717	2.309479952	-23.28533363	1.0
[LeftHandRing3]
1	29.37700081	0	0	-0.3396477997	1.963025212	-19.63078499	1.0
2	29.37700081	0	0	-0.3431368172	1.97276783	-19.73229599	1.0
[LeftHandRing4]
1	26.47500038	0	0	0	0	0	1.0
2	26.47500038	0	0	0	0	0	1.0
[LeftHandPinky1]
1	80.77799988	-4.887000084	-38.06099701	-2.530030966	5.020759583	-36.85699081	1.0
2	80.77799988	-4.887000084	-38.06099701	-2.490875959	4.967866421	-36.44167709	1.0
[LeftHandPinky2]
1	36	0	0	-0.5053883791	2.376728535	-24.00607681	1.0
2	36	0	0	-0.509648025	2.386254311	-24.10852051	1.0
[LeftHandPinky3]
1	21.14200211	0	0	-0.2226541787	1.597679019	-15.86637497	1.0
2	21.14200211	0	0	-0.2256439924	1.608150482	-15.97319889	1.0
[LeftHandPinky4]
1	19.75699997	0	0	0	0	0	1.0
2	19.75699997	0	0	0	0	0	1.0
[RightShoulder]
1	-45.70000076	109.4620056	-26.28000069	0.3492159545	-1.471675873	9.829175949	1.0
2	-45.70000076	109.4620056	-26.28000069	0.2792427838	-0.8626887798	9.642131805	1.0
[RightArm]
1	-105.9280014	-5.248000145	-22.32099915	16.89070129	7.323745728	64.84467316	1.0
2	-105.9280014	-5.248000145	-22.32099915	17.5060215	8.371870041	65.79582214	1.0
[RightForeArm]
1	-278.414978	0	0	-5.600905297e-06	10.88051319	-1.340027893e-06	1.0
2	-278.414978	0	0	-1.297040967e-06	13.18435955	-9.192614925e-06	1.0
[RightHand]
1	-283.2879944	0	0.0009999999311	5.861548901	6.67755127	3.736656427	1.0
2	-283.2879944	0	0.0009999999311	6.080575943	7.414856434	4.184369564	1.0
[RightHandPinky1]
1	-80.76699829	-4.885000229	-38.06000137	-1.702342272	-2.528396368	29.59060097	1.0
2	-80.76699829	-4.885000229	-38.06000137	-1.692951441	-2.552598	29.46378517	1.0
[RightHandPinky2]
1	-36	0	0.0009999999311	-0.3775835037	-1.833147645	23.29549408	1.0
2	-36	0	0.0009999999311	-0.3723627925	-1.820970654	23.13154984	1.0
[RightHandPinky3]
1	-21.14200211	0	0	-0.4318717122	-1.954472184	24.91845703	1.0
2	-21.14200211	0	0	-0.427923888	-1.945947051	24.80229378	1.0
[RightHandPinky4]
1	-19.75699997	0	0	0	0	0	1.0
2	-19.75699997	0	0	0	0	0	1.0
[RightHandRing1]
1	-91.03599548	-0.4390000105	-18.65100098	-1.914600253	-2.697015762	32.57826614	1.0
2	-91.03599548	-0.4390000105	-18.65100098	-1.923570514	-2.680419683	32.69406128	1.0
[RightHandRing2]
1	-31.54000092	0	0	-0.7087621093	-2.463946581	32.09183121	1.0
2	-31.54000092	0	0	-0.7081080079	-2.462909698	32.07673264	1.0
[RightHandRing3]
1	-29.37700081	0	0	-0.7872390151	-2.584769726	33.87369919	1.0
2	-29.37700081	0	0	-0.7865583301	-2.58373642	33.85837936	1.0
[RightHandRing4]
1	-26.47500038	0	0	0	0	0	1.0
2	-26.47500038	0	0	0	0	0	1.0
[RightHandMiddle1]
1	-95.32500458	0	0	-2.219618559	-0.9948293567	36.48439026	1.0
2	-95.32500458	0	0	-2.214116335	-0.9912003875	36.41615295	1.0
[RightHandMiddle2]
1	-36.98199844	0	0	-0.4374004602	-1.966320038	25.07984543	1.0
2	-36.98199844	0	0	-0.4366013706	-1.96460557	25.05664063	1.0
[RightHandMiddle3]
1	-29.50900078	0	0	-0.3046112359	-1.655308127	20.87729645	1.0
2	-29.50900078	0	0	-0.3039302528	-1.653562069	20.85386276	1.0
[RightHandMiddle4]
1	-28.3390007	0	0.0009999999311	0	0	0	1.0
2	-28.3390007	0	0.0009999999311	0	0	0	1.0
[RightHandIndex1]
1	-91.08300018	-5.167999744	22.60099792	-1.103259325	6.990418911	22.40455818	1.0
2	-91.08300018	-5.167999744	22.60099792	-1.099261284	6.906670094	22.33311081	1.0
[RightHandIndex2]
1	-36.76399994	0	0	-0.5686532259	-2.225151539	28.66814804	1.0
2	-36.76399994	0	0	-0.5720969439	-2.231421709	28.75657845	1.0
[RightHandIndex3]
1	-28.83100128	0	0	-0.2336083204	-1.453639984	18.2588253	1.0
2	-28.83100128	0	0	-0.2358835042	-1.460501194	18.34813881	1.0
[RightHandIndex4]
1	-23.92700005	0	0	0	0	0	1.0
2	-23.92700005	0	0	0	0	0	1.0
[RightHandThumb1]
1	-24.64799881	-15.72700024	26.82600021	30.15343666	21.14214134	-10.25145817	1.0
2	-24.64799881	-15.72700024	26.82600021	30.15343666	21.14214134	-10.25145817	1.0
[RightHandThumb2]
1	-32.29800034	-18.64699936	18.64699936	10.43606663	-21.63964272	0.7531636357	1.0
2	-32.29800034	-18.64699936	18.64699936	10.44320679	-22.30560875	0.716838181	1.0
[RightHandThumb3]
1	-26.52600098	-15.31399918	15.31399918	-11.84796524	-13.66853142	-10.32497597	1.0
2	-26.52600098	-15.31399918	15.31399918	-11.84598255	-13.67377472	-10.3275423	1.0
[RightHandThumb4]
1	-19.54599953	-11.28499985	11.28499985	0	0	0	1.0
2	-19.54599953	-11.28499985	11.28499985	0	0	0	1.0
[LeftUpLeg]
1	82.07800293	-67.51699829	-15.99599934	-31.76502037	14.65436745	-0.4217801988	1.0
2	82.07800293	-67.51699829	-15.99599934	-35.13897705	13.52610779	-0.375158608	1.0
[LeftLeg]
1	0	-443.7049866	2.845999956	60.86547089	-0.6546308398	-1.706532359	1.0
2	0	-443.7049866	2.845999956	51.40860748	-0.5243098736	-1.06940639	1.0
[LeftFoot]
1	0	-444.2789917	-29.8219986	-3.534517527	-0.04828462005	2.20190835	1.0
2	0	-444.2789917	-29.8219986	-4.299279213	-0.006238732487	-0.7300900221	1.0
[LeftToeBase]
1	0	-87.28699493	107.1060028	-8.975722313	-2.56205185e-05	3.64326138e-06	1.0
2	0	-87.28699493	107.1060028	-8.045698166	-2.342433436e-05	-1.256741712e-06	1.0
[RightUpLeg]
1	-82.07800293	-67.51699829	-15.99599934	-25.81711388	-0.7114825845	2.28403616	1.0
2	-82.07800293	-67.51699829	-15.99599934	-21.60112572	-1.300931811	-0.1035519242	1.0
[RightLeg]
1	0	-443.7049866	2.861999989	27.84389496	5.27695322	2.827932596	1.0
2	0	-443.7049866	2.861999989	25.34871864	5.734116554	2.770549536	1.0
[RightFoot]
1	0	-444.2770081	-29.83799934	-9.314695358	0.7339173555	-0.9620086551	1.0
2	0	-444.2770081	-29.83799934	-11.27728939	0.8956173658	-0.1286102682	1.0
[RightToeBase]
1	0	-87.28699493	107.1060028	-6.010779381	2.767219303e-05	-8.49529215e-07	1.0
2	0	-87.28699493	107.1060028	-6.010782242	-1.091185004e-05	4.530826914e-07	1.0
[EndOfFile]
